<?xml version="1.0" encoding="UTF-8" ?>
<!DOCTYPE svg PUBLIC "-//W3C//DTD SVG 1.1//EN" "http://www.w3.org/Graphics/SVG/1.1/DTD/svg11.dtd">
<svg width="712pt" height="378pt" viewBox="0 0 712 378" version="1.1" xmlns="http://www.w3.org/2000/svg">
<g id="#ffffffff">
</g>
<g id="#004ca0ff">
<path fill="#004ca0" opacity="1.00" d=" M 169.21 18.20 C 155.97 29.57 142.98 41.37 131.80 54.82 C 112.07 78.12 97.46 106.37 93.21 136.82 C 90.84 152.91 91.24 169.32 93.60 185.39 C 98.83 183.32 103.93 180.96 108.96 178.46 C 117.23 174.12 125.39 169.54 133.02 164.13 C 140.73 158.64 148.23 152.38 153.21 144.20 C 156.03 139.55 157.57 133.35 154.68 128.37 C 150.96 121.75 143.34 119.11 136.66 116.53 C 146.70 116.89 157.08 117.40 166.40 121.54 C 171.34 123.73 176.14 128.13 176.04 133.94 C 176.01 141.70 170.56 147.90 165.72 153.41 C 173.33 154.27 181.19 155.29 188.02 159.03 C 192.34 161.43 196.00 165.85 195.77 171.03 C 195.35 178.40 190.42 184.43 185.57 189.56 C 174.77 200.22 161.43 207.85 147.82 214.34 C 138.45 218.78 128.77 222.54 118.93 225.80 C 113.97 227.39 109.01 229.02 103.97 230.38 C 107.39 242.59 111.49 254.68 113.34 267.26 C 105.96 256.36 99.31 244.98 93.13 233.36 C 72.58 238.54 51.46 242.27 30.18 241.60 C 34.77 240.62 39.49 240.48 44.12 239.80 C 60.03 237.62 75.74 234.10 91.15 229.63 C 85.73 218.71 80.78 207.53 77.09 195.91 C 58.25 200.88 38.94 204.65 19.42 205.18 C 16.44 205.30 13.48 204.87 10.54 204.40 C 14.39 204.26 18.25 204.19 22.07 203.62 C 40.27 201.21 58.30 197.33 75.80 191.74 C 68.69 168.29 67.40 142.53 75.39 119.14 C 83.51 94.42 100.30 73.63 119.11 56.11 C 134.52 41.88 151.47 29.35 169.21 18.20 M 135.73 174.11 C 127.46 178.45 118.89 182.19 110.13 185.43 C 104.92 187.27 99.70 189.11 94.46 190.87 C 96.48 202.72 99.42 214.38 102.71 225.93 C 107.74 224.08 112.79 222.24 117.68 220.01 C 127.19 215.76 136.48 211.00 145.38 205.57 C 154.61 199.75 163.51 193.06 170.35 184.46 C 173.86 179.64 177.31 173.52 175.43 167.39 C 173.74 161.57 168.26 158.13 163.10 155.69 C 154.96 163.16 145.45 168.93 135.73 174.11 Z" />
</g>
<g id="#00a923ff">
<path fill="#00a923" opacity="1.00" d=" M 141.46 67.43 C 148.33 59.84 155.68 52.59 163.84 46.39 C 149.68 62.76 137.09 81.15 131.18 102.21 C 125.20 122.43 127.89 144.03 133.02 164.13 C 125.39 169.54 117.23 174.12 108.96 178.46 C 106.52 163.96 105.50 149.06 107.53 134.44 C 111.21 109.14 124.66 86.29 141.46 67.43 Z" />
<path fill="#00a923" opacity="1.00" d=" M 110.13 185.43 C 118.89 182.19 127.46 178.45 135.73 174.11 C 138.79 184.64 142.24 195.06 145.38 205.57 C 136.48 211.00 127.19 215.76 117.68 220.01 C 115.02 208.52 112.34 197.03 110.13 185.43 Z" />
<path fill="#00a923" opacity="1.00" d=" M 118.93 225.80 C 128.77 222.54 138.45 218.78 147.82 214.34 C 154.63 237.99 157.21 263.51 150.63 287.52 C 142.65 317.11 124.00 342.57 102.95 364.31 C 116.01 339.14 124.68 311.40 125.99 282.97 C 126.74 263.67 123.13 244.55 118.93 225.80 Z" />
</g>
<g id="#000000ff">
<path fill="#000000" opacity="1.00" d=" M 229.24 166.24 C 232.66 166.23 236.08 166.23 239.50 166.25 C 239.48 173.18 239.52 180.11 239.50 187.04 C 239.34 190.88 239.10 195.28 236.04 198.04 C 231.96 202.06 225.54 201.79 220.38 200.51 C 215.46 198.97 213.45 193.69 213.05 188.99 C 216.28 188.50 219.52 188.06 222.74 187.55 C 223.14 189.46 223.27 192.95 225.90 193.00 C 228.26 193.52 229.21 190.73 229.16 188.89 C 229.36 181.35 229.16 173.79 229.24 166.24 Z" />
<path fill="#000000" opacity="1.00" d=" M 257.23 166.13 C 263.16 165.12 270.15 165.88 274.41 170.57 C 278.80 175.57 279.10 182.78 278.04 189.03 C 277.10 195.04 272.07 200.15 266.03 201.02 C 260.21 201.74 253.37 201.43 249.13 196.80 C 244.42 191.79 244.07 184.32 245.23 177.90 C 246.38 172.02 251.24 167.03 257.23 166.13 M 260.14 174.11 C 257.04 174.72 255.33 177.93 255.10 180.86 C 254.87 184.29 254.63 188.25 256.94 191.09 C 259.65 194.43 265.66 193.59 267.34 189.60 C 268.51 186.04 268.60 182.08 267.63 178.46 C 266.76 175.33 263.28 173.38 260.14 174.11 Z" />
<path fill="#000000" opacity="1.00" d=" M 283.76 166.23 C 291.77 166.56 299.95 165.42 307.84 167.16 C 316.04 170.11 314.71 183.89 306.21 185.57 C 311.68 188.81 313.08 195.59 316.11 200.76 C 312.21 200.77 308.30 200.76 304.40 200.76 C 302.23 196.82 300.37 192.70 298.11 188.81 C 297.34 187.28 295.41 187.30 294.02 186.75 C 293.97 191.42 294.01 196.09 294.00 200.77 C 290.58 200.76 287.17 200.76 283.76 200.77 C 283.75 189.25 283.75 177.74 283.76 166.23 M 294.00 173.49 C 294.00 175.75 294.00 178.01 294.01 180.28 C 296.43 180.11 299.13 180.63 301.34 179.38 C 303.28 178.48 303.63 175.41 301.78 174.22 C 299.35 173.06 296.59 173.61 294.00 173.49 Z" />
<path fill="#000000" opacity="1.00" d=" M 317.27 178.82 C 318.20 173.14 322.36 167.84 328.08 166.46 C 332.80 165.43 337.83 165.41 342.50 166.72 C 346.46 168.02 348.73 171.88 349.83 175.68 C 346.59 176.28 343.36 176.92 340.12 177.49 C 339.01 175.95 337.93 174.08 335.90 173.71 C 331.79 172.44 327.74 176.06 327.44 180.10 C 327.03 184.13 326.75 189.06 329.97 192.09 C 333.23 194.67 337.62 193.36 340.95 191.65 C 340.97 190.60 340.99 189.55 341.02 188.50 C 338.84 188.50 336.67 188.50 334.50 188.50 C 334.50 186.00 334.50 183.50 334.50 181.00 C 339.75 181.00 345.00 181.00 350.25 181.00 C 350.24 185.93 350.26 190.86 350.23 195.79 C 343.14 201.50 332.75 203.22 324.46 199.24 C 317.56 195.21 315.93 186.12 317.27 178.82 Z" />
<path fill="#000000" opacity="1.00" d=" M 355.76 166.24 C 364.84 166.23 373.92 166.24 383.00 166.23 C 383.00 168.82 383.00 171.41 383.00 174.00 C 377.33 174.00 371.67 174.00 366.00 174.00 C 366.00 175.66 366.00 177.33 366.00 179.00 C 371.25 179.00 376.51 179.00 381.76 179.00 C 381.76 181.41 381.76 183.83 381.76 186.24 C 376.51 186.25 371.25 186.25 366.00 186.24 C 366.00 188.41 366.00 190.58 366.00 192.76 C 371.83 192.75 377.67 192.75 383.50 192.75 C 383.50 195.42 383.50 198.09 383.49 200.77 C 374.24 200.76 365.00 200.76 355.76 200.77 C 355.75 189.26 355.75 177.75 355.76 166.24 Z" />
<path fill="#000000" opacity="1.00" d=" M 415.15 166.09 C 419.27 165.40 423.66 165.64 427.54 167.30 C 432.13 169.34 435.25 173.98 435.90 178.90 C 436.65 184.18 436.40 189.96 433.52 194.61 C 431.16 198.56 426.67 201.00 422.11 201.21 C 417.06 201.54 411.34 201.18 407.53 197.43 C 402.20 192.60 401.64 184.60 402.92 177.94 C 404.02 171.93 409.05 166.92 415.15 166.09 M 416.44 174.64 C 413.72 175.94 412.76 179.19 412.75 181.98 C 412.66 185.34 412.46 189.49 415.40 191.79 C 418.41 194.47 423.95 193.13 425.12 189.19 C 426.24 185.58 426.43 181.53 425.11 177.95 C 423.90 174.60 419.57 172.92 416.44 174.64 Z" />
<path fill="#000000" opacity="1.00" d=" M 470.24 166.24 C 474.75 166.23 479.25 166.23 483.76 166.25 C 485.34 173.05 487.09 179.82 488.65 186.63 C 490.32 179.84 491.98 173.04 493.59 166.24 C 498.06 166.23 502.53 166.24 507.00 166.23 C 507.00 177.74 507.00 189.26 507.00 200.77 C 504.16 200.76 501.33 200.76 498.51 200.77 C 498.48 192.59 498.52 184.42 498.49 176.25 C 496.44 184.40 494.46 192.57 492.52 200.74 C 490.00 200.76 487.49 200.86 484.99 200.70 C 482.53 192.92 481.22 184.80 478.90 176.97 C 478.59 184.89 478.85 192.83 478.76 200.76 C 475.92 200.77 473.08 200.77 470.24 200.76 C 470.23 189.25 470.23 177.75 470.24 166.24 Z" />
<path fill="#000000" opacity="1.00" d=" M 513.51 166.24 C 516.92 166.23 520.34 166.23 523.76 166.24 C 523.77 177.75 523.77 189.25 523.76 200.76 C 520.34 200.77 516.92 200.76 513.51 200.77 C 513.49 189.26 513.49 177.75 513.51 166.24 Z" />
<path fill="#000000" opacity="1.00" d=" M 530.76 166.23 C 533.97 166.23 537.19 166.23 540.41 166.24 C 544.34 172.26 548.09 178.40 552.17 184.32 C 552.31 178.29 552.19 172.27 552.24 166.24 C 555.49 166.23 558.74 166.23 562.00 166.23 C 562.00 177.74 562.00 189.26 562.00 200.77 C 558.78 200.76 555.57 200.76 552.36 200.78 C 548.41 194.67 544.53 188.52 540.52 182.45 C 540.48 188.55 540.51 194.66 540.50 200.76 C 537.24 200.77 534.00 200.76 530.76 200.76 C 530.75 189.25 530.75 177.74 530.76 166.23 Z" />
<path fill="#000000" opacity="1.00" d=" M 568.51 166.24 C 577.49 166.22 586.48 166.27 595.46 166.21 C 595.50 168.80 595.50 171.40 595.51 174.00 C 589.92 174.00 584.34 174.00 578.76 174.00 C 578.76 175.66 578.76 177.33 578.76 179.00 C 583.92 179.00 589.08 179.00 594.25 179.00 C 594.24 181.41 594.24 183.83 594.25 186.25 C 589.09 186.25 583.93 186.25 578.77 186.25 C 578.76 188.41 578.76 190.58 578.77 192.75 C 584.51 192.76 590.25 192.75 596.00 192.75 C 595.99 195.42 595.99 198.09 596.00 200.77 C 586.89 200.73 577.78 200.83 568.68 200.73 C 568.26 189.25 568.61 177.73 568.51 166.24 Z" />
<path fill="#000000" opacity="1.00" d=" M 599.00 166.23 C 609.25 166.24 619.50 166.22 629.76 166.24 C 629.76 169.16 629.76 172.08 629.77 175.00 C 626.34 175.00 622.91 174.99 619.49 175.02 C 619.50 183.61 619.52 192.19 619.48 200.78 C 616.06 200.76 612.65 200.77 609.24 200.76 C 609.22 192.17 609.24 183.59 609.24 175.00 C 605.82 175.00 602.41 175.00 599.00 175.00 C 599.00 172.08 599.00 169.15 599.00 166.23 Z" />
<path fill="#000000" opacity="1.00" d=" M 631.76 166.23 C 642.01 166.25 652.26 166.20 662.51 166.26 C 662.49 169.17 662.50 172.09 662.50 175.00 C 659.08 175.00 655.66 175.00 652.24 175.00 C 652.25 183.59 652.25 192.18 652.24 200.77 C 648.82 200.76 645.41 200.76 642.00 200.77 C 642.00 192.18 642.00 183.59 642.00 175.00 C 638.58 175.00 635.16 175.00 631.75 175.00 C 631.75 172.08 631.75 169.15 631.76 166.23 Z" />
<path fill="#000000" opacity="1.00" d=" M 667.00 166.23 C 670.41 166.24 673.82 166.24 677.24 166.23 C 677.26 177.73 677.22 189.23 677.26 200.72 C 673.84 200.78 670.42 200.77 667.00 200.77 C 667.00 189.26 667.00 177.74 667.00 166.23 Z" />
<path fill="#000000" opacity="1.00" d=" M 439.75 191.00 C 443.00 191.00 446.25 191.00 449.50 191.00 C 449.50 194.25 449.50 197.51 449.50 200.76 C 446.25 200.77 443.00 200.76 439.76 200.76 C 439.75 197.51 439.75 194.25 439.75 191.00 Z" />
<path fill="#000000" opacity="1.00" d=" M 356.49 217.01 C 359.16 217.00 361.83 217.00 364.50 217.00 C 364.50 220.08 364.50 223.15 364.51 226.23 C 367.17 226.24 369.83 226.24 372.50 226.23 C 372.50 223.15 372.50 220.08 372.49 217.01 C 375.17 216.99 377.85 216.99 380.53 217.04 C 380.46 225.86 380.52 234.68 380.50 243.50 C 377.83 243.50 375.16 243.50 372.50 243.50 C 372.50 240.00 372.50 236.50 372.50 233.00 C 369.83 233.00 367.16 233.00 364.50 233.00 C 364.50 236.50 364.50 240.00 364.50 243.50 C 361.83 243.50 359.16 243.50 356.50 243.50 C 356.49 234.67 356.51 225.84 356.49 217.01 Z" />
<path fill="#000000" opacity="1.00" d=" M 385.24 217.00 C 387.65 217.00 390.08 217.00 392.50 217.00 C 392.50 218.75 392.49 220.50 392.50 222.25 C 390.08 222.25 387.65 222.24 385.24 222.24 C 385.23 220.49 385.23 218.75 385.24 217.00 Z" />
<path fill="#000000" opacity="1.00" d=" M 396.75 217.00 C 399.16 217.00 401.58 217.00 404.00 217.00 C 404.00 218.75 403.99 220.49 404.00 222.25 C 401.58 222.25 399.16 222.24 396.75 222.25 C 396.75 220.49 396.75 218.75 396.75 217.00 Z" />
<path fill="#000000" opacity="1.00" d=" M 468.48 217.65 C 472.72 216.18 477.75 216.03 481.80 218.16 C 484.16 219.50 484.72 222.30 485.40 224.70 C 482.93 224.83 480.46 224.97 477.99 225.04 C 477.26 222.23 473.45 220.29 471.59 223.21 C 471.72 223.60 471.98 224.38 472.11 224.77 C 475.95 226.31 480.53 226.39 483.73 229.29 C 487.95 233.08 486.04 240.91 480.88 242.88 C 476.83 244.47 472.14 244.33 468.10 242.83 C 464.80 241.48 463.61 237.83 462.97 234.64 C 465.51 234.42 468.05 234.24 470.61 234.12 C 471.21 235.85 471.75 238.16 473.97 238.40 C 476.73 239.63 479.64 235.92 477.00 233.90 C 473.50 232.37 469.29 232.27 466.35 229.60 C 462.56 226.39 463.86 219.42 468.48 217.65 Z" />
<path fill="#000000" opacity="1.00" d=" M 501.23 217.00 C 507.52 217.32 514.00 216.21 520.15 217.83 C 525.96 220.46 524.96 230.22 518.75 231.82 C 522.58 234.69 523.90 239.49 526.12 243.51 C 523.10 243.49 520.09 243.49 517.09 243.53 C 515.19 240.26 513.87 236.63 511.59 233.61 C 511.01 233.38 509.86 232.92 509.29 232.68 C 509.22 236.29 509.25 239.89 509.25 243.50 C 506.57 243.50 503.90 243.50 501.23 243.49 C 501.24 234.66 501.24 225.83 501.23 217.00 M 509.26 222.40 C 509.24 224.22 509.25 226.04 509.27 227.87 C 511.51 227.63 514.41 228.06 515.85 225.88 C 515.66 224.88 515.45 223.89 515.21 222.91 C 513.23 222.67 511.24 222.51 509.26 222.40 Z" />
<path fill="#000000" opacity="1.00" d=" M 539.75 217.00 C 542.42 217.00 545.09 217.00 547.77 217.00 C 547.76 223.58 547.76 230.17 547.77 236.75 C 551.76 236.75 555.76 236.75 559.76 236.75 C 559.76 238.99 559.76 241.24 559.77 243.48 C 553.10 243.52 546.42 243.49 539.75 243.50 C 539.75 234.67 539.75 225.83 539.75 217.00 Z" />
<path fill="#000000" opacity="1.00" d=" M 326.39 224.48 C 330.41 223.24 335.37 223.40 338.68 226.26 C 341.39 228.61 341.49 232.44 341.59 235.74 C 336.89 235.80 332.18 235.70 327.48 235.83 C 328.13 237.52 329.57 240.27 331.84 239.07 C 334.80 237.21 338.26 238.03 341.52 238.39 C 338.52 244.27 330.77 245.24 325.19 242.87 C 318.39 239.14 318.88 227.11 326.39 224.48 M 327.52 231.94 C 329.85 232.01 332.18 232.01 334.51 231.95 C 333.99 230.42 333.27 228.83 331.47 228.60 C 329.32 227.88 328.17 230.35 327.52 231.94 Z" />
<path fill="#000000" opacity="1.00" d=" M 385.24 224.24 C 387.66 224.23 390.08 224.23 392.50 224.24 C 392.50 230.66 392.50 237.08 392.50 243.50 C 390.08 243.50 387.66 243.50 385.25 243.50 C 385.23 237.08 385.23 230.66 385.24 224.24 Z" />
<path fill="#000000" opacity="1.00" d=" M 413.36 224.49 C 416.72 223.35 420.62 223.49 423.76 225.24 C 429.82 228.84 429.74 239.13 423.59 242.59 C 419.13 244.90 412.78 244.54 409.45 240.47 C 405.34 235.56 407.03 226.64 413.36 224.49 M 415.07 237.42 C 415.79 237.78 417.21 238.50 417.92 238.86 C 422.66 237.15 421.87 229.57 416.96 228.69 C 414.16 230.77 414.04 234.35 415.07 237.42 Z" />
<path fill="#000000" opacity="1.00" d=" M 434.37 224.60 C 439.46 222.97 447.07 222.98 449.09 229.10 C 446.83 229.34 444.59 229.59 442.33 229.76 C 441.50 227.72 436.14 227.20 437.89 230.13 C 441.27 231.46 445.70 230.62 448.30 233.67 C 451.05 237.09 448.70 242.47 444.57 243.36 C 439.28 244.80 431.50 244.43 429.71 238.09 C 432.08 237.77 434.47 237.54 436.86 237.32 C 438.16 239.45 440.89 240.41 442.89 238.53 C 441.33 234.71 435.62 236.89 432.94 234.05 C 429.34 231.80 430.48 225.85 434.37 224.60 Z" />
<path fill="#000000" opacity="1.00" d=" M 396.76 224.24 C 399.17 224.23 401.58 224.23 404.00 224.24 C 403.90 231.53 404.20 238.84 403.86 246.13 C 403.86 248.18 402.13 249.51 400.98 250.99 C 398.21 251.32 395.43 251.09 392.70 250.63 C 393.03 248.87 393.38 247.11 393.76 245.36 C 394.82 244.88 397.06 244.92 396.73 243.14 C 396.82 236.84 396.71 230.54 396.76 224.24 Z" />
<path fill="#000000" opacity="1.00" d=" M 489.23 236.00 C 491.74 236.00 494.25 236.00 496.77 236.00 C 496.76 238.50 496.76 241.00 496.76 243.50 C 494.25 243.50 491.74 243.50 489.24 243.50 C 489.23 241.00 489.23 238.50 489.23 236.00 Z" />
<path fill="#000000" opacity="1.00" d=" M 527.75 236.00 C 530.25 236.00 532.74 236.00 535.25 236.00 C 535.24 238.50 535.24 241.00 535.25 243.50 C 532.74 243.50 530.25 243.50 527.75 243.50 C 527.75 241.00 527.75 238.50 527.75 236.00 Z" />
<path fill="#000000" opacity="1.00" d=" M 562.50 236.00 C 564.99 236.00 567.50 236.00 570.00 236.00 C 570.00 238.50 569.99 241.00 570.00 243.50 C 567.50 243.50 564.99 243.50 562.50 243.50 C 562.49 241.00 562.49 238.50 562.50 236.00 Z" />
</g>
</svg>
