<?xml version="1.0" encoding="UTF-8" ?>
<!DOCTYPE svg PUBLIC "-//W3C//DTD SVG 1.1//EN" "http://www.w3.org/Graphics/SVG/1.1/DTD/svg11.dtd">
<svg width="960pt" height="426pt" viewBox="0 0 960 426" version="1.1" xmlns="http://www.w3.org/2000/svg">
<g id="#ffffffff">
</g>
<g id="#016ba9ff">
<path fill="#016ba9" opacity="1.00" d=" M 174.84 4.72 C 375.68 4.70 576.53 4.78 777.37 4.68 C 777.35 84.31 777.34 163.95 777.38 243.59 C 576.53 243.55 375.67 243.69 174.82 243.52 C 174.93 163.92 174.89 84.32 174.84 4.72 M 235.38 64.46 C 243.11 67.36 247.39 74.61 252.39 80.63 C 266.74 98.61 281.18 116.52 295.53 134.50 C 297.01 135.95 296.54 138.13 296.65 139.99 C 296.56 151.02 296.68 162.06 296.60 173.10 C 296.66 177.26 294.52 181.05 291.55 183.83 C 311.27 183.85 331.00 183.73 350.72 183.89 C 348.02 180.92 346.72 177.01 346.75 173.03 C 346.68 160.57 346.80 148.11 346.70 135.65 C 362.27 115.88 378.06 96.27 393.68 76.53 C 397.45 71.72 402.21 67.77 407.37 64.53 C 388.28 64.49 369.20 64.48 350.11 64.53 C 340.68 79.78 331.11 94.94 321.64 110.17 C 311.92 95.11 302.74 79.70 293.25 64.49 C 273.96 64.48 254.67 64.55 235.38 64.46 M 425.00 64.42 C 428.50 66.84 431.66 70.51 431.37 75.05 C 431.37 107.70 431.43 140.36 431.33 173.02 C 431.39 177.26 428.11 180.32 425.00 182.69 C 445.89 182.52 466.78 182.68 487.67 182.61 C 484.56 180.25 481.02 177.40 480.95 173.12 C 480.69 162.34 480.99 151.54 480.80 140.75 C 492.54 140.78 504.29 140.83 516.03 140.68 C 526.16 140.39 536.54 139.96 546.15 136.41 C 555.13 133.11 562.16 125.81 566.42 117.39 C 569.13 111.68 568.80 105.16 568.71 99.00 C 568.54 91.02 565.66 82.85 559.58 77.45 C 549.12 68.07 534.69 64.71 520.96 64.54 C 488.97 64.39 456.99 64.63 425.00 64.42 M 590.64 64.40 C 593.29 66.90 595.96 70.02 595.71 73.92 C 595.75 106.96 595.73 140.00 595.72 173.04 C 595.81 176.97 594.45 180.81 591.94 183.83 C 611.31 183.84 630.68 183.75 650.04 183.88 C 647.46 181.24 645.97 177.75 645.93 174.04 C 645.72 162.84 646.02 151.63 645.79 140.42 C 662.86 140.13 679.94 140.39 697.02 140.29 C 700.40 140.09 703.67 141.12 706.56 142.84 C 706.57 133.37 706.53 123.90 706.59 114.44 C 701.93 117.46 696.26 116.93 690.98 117.09 C 675.91 117.05 660.85 117.26 645.78 116.84 C 645.89 107.62 645.95 98.40 645.77 89.18 C 665.51 88.90 685.25 89.24 704.99 88.98 C 709.60 88.70 713.77 90.94 717.19 93.83 C 717.10 84.09 717.18 74.35 717.16 64.61 C 674.98 64.53 632.81 64.66 590.64 64.40 Z" />
<path fill="#016ba9" opacity="1.00" d=" M 481.44 86.22 C 488.60 86.33 495.80 85.89 502.94 86.64 C 508.22 87.28 514.28 89.33 516.56 94.61 C 518.78 99.72 518.90 106.01 516.03 110.90 C 512.89 115.40 507.42 117.73 502.11 118.40 C 495.24 119.03 488.33 118.64 481.44 118.78 C 481.46 107.93 481.46 97.07 481.44 86.22 Z" />
</g>
<g id="#0d9543ff">
<path fill="#0d9543" opacity="1.00" d=" M 392.24 305.10 C 393.03 303.75 394.66 303.85 396.01 303.83 C 523.13 303.87 650.24 303.83 777.36 303.85 C 777.38 343.64 777.38 383.42 777.36 423.20 C 616.84 423.05 456.33 423.25 295.81 423.11 C 306.63 409.22 318.11 395.87 329.14 382.14 C 350.18 356.47 371.20 330.77 392.24 305.10 M 430.33 334.16 C 430.15 354.32 429.84 374.48 429.68 394.64 C 440.16 394.35 451.03 395.91 461.13 392.37 C 467.16 390.36 472.70 386.59 476.31 381.31 C 482.20 372.52 482.82 360.73 478.85 351.05 C 474.85 341.56 465.12 335.45 455.07 334.40 C 446.84 333.84 438.57 334.31 430.33 334.16 M 491.28 334.15 C 491.29 336.86 491.31 339.56 491.34 342.27 C 493.97 342.23 496.60 342.22 499.23 342.25 C 499.21 339.57 499.22 336.89 499.26 334.21 C 496.60 334.17 493.94 334.15 491.28 334.15 M 624.61 334.84 C 624.61 340.16 624.65 345.49 624.57 350.81 C 622.09 350.83 619.63 350.82 617.17 350.82 C 617.14 352.71 617.13 354.61 617.13 356.52 C 619.57 356.49 622.02 356.47 624.48 356.46 C 624.44 366.32 624.09 376.19 624.27 386.06 C 624.38 389.77 625.97 393.98 629.75 395.33 C 635.01 396.87 640.38 394.87 644.82 392.07 C 644.01 390.46 643.21 388.87 642.40 387.28 C 639.46 389.20 636.05 390.17 632.56 389.44 C 632.06 387.66 631.46 385.88 631.50 384.03 C 631.47 374.85 631.82 365.68 631.75 356.50 C 635.75 356.50 639.75 356.49 643.76 356.52 C 643.73 354.60 643.70 352.68 643.67 350.77 C 639.72 350.82 635.76 350.84 631.82 350.81 C 631.81 345.48 631.90 340.15 631.87 334.83 C 629.45 334.83 627.02 334.84 624.61 334.84 M 519.33 359.19 C 519.24 356.39 519.19 353.59 519.24 350.80 C 516.73 350.79 514.22 350.79 511.72 350.79 C 511.59 365.42 511.42 380.04 511.31 394.66 C 513.75 394.67 516.18 394.67 518.63 394.67 C 518.71 386.13 518.90 377.58 518.82 369.04 C 518.40 364.95 521.52 361.81 524.26 359.24 C 526.62 357.07 529.93 356.30 533.00 357.24 C 533.63 354.96 534.52 352.74 534.77 350.38 C 528.29 347.58 521.60 353.30 519.33 359.19 M 545.42 353.53 C 535.73 360.88 534.11 375.22 538.94 385.81 C 541.74 391.93 548.17 396.18 554.97 395.81 C 561.64 396.29 567.60 392.47 572.22 388.04 C 571.07 386.70 569.92 385.35 568.79 384.00 C 566.76 385.61 564.83 387.37 562.59 388.68 C 558.09 391.34 551.71 390.90 548.13 386.90 C 544.66 382.84 544.26 377.23 544.11 372.13 C 553.86 372.13 563.62 372.06 573.38 372.16 C 573.37 365.84 572.59 358.85 567.96 354.10 C 562.05 348.20 551.75 348.36 545.42 353.53 M 593.17 351.19 C 580.83 356.57 576.87 372.87 582.24 384.53 C 585.04 391.03 591.74 396.03 598.97 395.79 C 604.68 396.22 610.25 393.31 613.77 388.92 C 613.68 387.00 611.55 385.81 610.55 384.28 C 607.93 386.77 605.00 389.79 601.09 389.69 C 596.20 390.22 591.70 386.83 589.66 382.58 C 586.51 376.06 587.33 368.05 590.80 361.83 C 593.18 357.36 598.85 354.55 603.77 356.26 C 606.37 356.96 608.26 358.98 610.11 360.82 C 611.70 359.54 613.29 358.27 614.89 357.00 C 609.84 350.64 600.73 347.57 593.17 351.19 M 664.20 350.17 C 656.49 351.94 650.32 358.43 648.51 366.07 C 646.86 372.92 647.42 380.60 650.97 386.79 C 656.58 397.04 671.89 398.66 680.68 391.71 C 690.98 383.74 692.20 367.34 684.90 357.00 C 680.31 350.59 671.60 348.58 664.20 350.17 M 491.58 350.78 C 491.60 365.41 491.45 380.04 491.30 394.67 C 493.74 394.66 496.17 394.67 498.61 394.68 C 498.77 380.04 498.85 365.40 498.78 350.76 C 496.37 350.78 493.97 350.78 491.58 350.78 Z" />
<path fill="#0d9543" opacity="1.00" d=" M 438.16 340.17 C 446.52 340.11 455.52 339.40 463.00 343.89 C 471.07 348.28 474.41 358.17 473.41 366.91 C 472.92 374.34 468.87 381.79 462.00 385.08 C 454.52 389.13 445.80 388.50 437.60 388.55 C 437.50 372.42 438.06 356.30 438.16 340.17 Z" />
<path fill="#0d9543" opacity="1.00" d=" M 552.88 355.89 C 556.29 354.78 560.61 355.07 563.13 357.92 C 565.41 360.27 565.63 363.73 566.09 366.81 C 558.94 366.96 551.78 366.91 544.63 366.81 C 546.08 362.42 548.31 357.73 552.88 355.89 Z" />
<path fill="#0d9543" opacity="1.00" d=" M 664.22 356.24 C 668.08 354.63 672.97 354.99 676.19 357.84 C 680.39 361.16 681.63 366.88 681.59 371.99 C 681.86 377.47 680.37 383.38 676.18 387.18 C 672.05 391.19 664.81 391.41 660.59 387.43 C 656.09 383.35 655.25 376.79 655.52 371.04 C 655.78 365.18 658.52 358.68 664.22 356.24 Z" />
</g>
</svg>
