<?xml version="1.0" encoding="UTF-8" ?>
<!DOCTYPE svg PUBLIC "-//W3C//DTD SVG 1.1//EN" "http://www.w3.org/Graphics/SVG/1.1/DTD/svg11.dtd">
<svg width="202pt" height="377pt" viewBox="0 0 202 377" version="1.1" xmlns="http://www.w3.org/2000/svg">
<g id="#ffffffff">
</g>
<g id="#004ca0ff">
<path fill="#004ca0" opacity="1.00" d=" M 95.89 73.92 C 115.10 51.77 138.63 33.80 163.27 18.12 C 146.05 32.86 129.37 48.56 116.22 67.15 C 98.51 91.51 87.10 120.78 85.85 151.01 C 85.19 162.48 85.94 174.01 87.62 185.37 C 92.86 183.34 97.93 180.94 102.97 178.47 C 111.22 174.10 119.41 169.55 127.03 164.12 C 134.73 158.64 142.21 152.38 147.19 144.22 C 150.02 139.56 151.59 133.36 148.67 128.37 C 144.96 121.71 137.29 119.16 130.65 116.48 C 140.94 116.98 151.64 117.37 161.12 121.88 C 165.78 124.11 170.15 128.43 170.04 133.95 C 169.94 141.69 164.64 148.07 159.55 153.40 C 167.21 154.24 175.11 155.27 181.98 159.00 C 186.34 161.41 190.01 165.85 189.78 171.07 C 189.32 178.41 184.43 184.40 179.61 189.53 C 168.79 200.21 155.43 207.85 141.80 214.35 C 132.44 218.79 122.75 222.54 112.92 225.81 C 107.96 227.37 103.02 229.05 97.98 230.37 C 101.38 242.57 105.49 254.65 107.33 267.23 C 99.94 256.36 93.30 244.97 87.14 233.36 C 66.58 238.57 45.45 242.22 24.17 241.64 C 27.35 240.74 30.66 240.75 33.91 240.32 C 51.26 238.26 68.39 234.48 85.16 229.63 C 79.73 218.72 74.78 207.53 71.09 195.90 C 55.03 200.21 38.63 203.42 22.04 204.79 C 16.15 205.06 10.18 205.71 4.38 204.29 C 7.96 204.26 11.56 204.27 15.11 203.75 C 33.64 201.32 52.03 197.46 69.82 191.70 C 64.15 173.16 62.22 153.31 65.54 134.15 C 69.49 111.62 81.10 91.12 95.89 73.92 M 129.74 174.11 C 121.46 178.44 112.88 182.18 104.13 185.44 C 98.91 187.28 93.67 189.07 88.46 190.92 C 90.50 202.74 93.42 214.39 96.71 225.92 C 101.74 224.06 106.82 222.28 111.67 219.98 C 121.20 215.78 130.48 211.00 139.36 205.57 C 148.44 199.90 157.11 193.32 163.93 185.00 C 167.49 180.24 171.05 174.31 169.64 168.13 C 168.19 161.95 162.51 158.13 157.05 155.72 C 148.94 163.20 139.42 168.92 129.74 174.11 Z" />
</g>
<g id="#00a923ff">
<path fill="#00a923" opacity="1.00" d=" M 138.81 63.74 C 144.86 57.63 150.93 51.43 157.94 46.41 C 140.53 66.07 125.75 89.53 122.33 116.04 C 120.69 132.19 122.94 148.49 127.03 164.12 C 119.41 169.55 111.22 174.10 102.97 178.47 C 100.50 163.85 99.47 148.82 101.58 134.09 C 105.59 107.23 120.53 83.29 138.81 63.74 Z" />
<path fill="#00a923" opacity="1.00" d=" M 104.13 185.44 C 112.88 182.18 121.46 178.44 129.74 174.11 C 132.78 184.65 136.25 195.05 139.36 205.57 C 130.48 211.00 121.20 215.78 111.67 219.98 C 109.02 208.50 106.34 197.02 104.13 185.44 Z" />
<path fill="#00a923" opacity="1.00" d=" M 112.92 225.81 C 122.75 222.54 132.44 218.79 141.80 214.35 C 148.73 238.19 151.22 263.98 144.46 288.17 C 136.38 317.49 117.84 342.69 96.98 364.30 C 108.71 341.52 117.01 316.74 119.39 291.14 C 121.74 269.17 117.74 247.18 112.92 225.81 Z" />
</g>
</svg>
